:FULLY-SPECIFIED
:FORCE-ALL-JOINTS-BE-3DOF
:DEGREES
611
root 5.64302 16.678 -3.74703 0.249035 53.0036 -7.89499
lfemur -17.7762 23.805 -21.7715
ltibia 40.2882 -0 0
lfoot -32.317 24.212 0.00283627
ltoes 17.182 -0 0
rfemur -52.002 -17.6994 27.2251
rtibia 60.6326 -0 0
rfoot 7.80621 27.9568 -0.00617484
rtoes -5.87014 0 0
lowerback 3.35669 -3.2069 -4.88502
upperback 0.0787322 -4.43841 1.25245
thorax -1.32808 -2.18467 4.2035
lowerneck -8.32759 -9.48807 -0.613657
upperneck 14.7649 -13.5198 4.71373
head 6.23054 -6.22019 0.502196
lclavicle 6.20208e-14 0 0
lhumerus -22.2309 -41.9412 93.0694
lradius 56.9919 -0 0
lwrist 21.0673 0 0
lhand -11.0667 0.180928 0.00159093
lfingers 7.12502 -0 0
lthumb 14.9562 29.6207 0.00149191
rclavicle 6.20208e-14 0 0
rhumerus 21.1533 4.02257 -71.623
rradius 118.326 -0 0
rwrist -57.9903 0 0
rhand -27.1978 -22.6989 0.0234683
rfingers 7.12502 -0 0
rthumb -0.611053 -52.6743 0.02252
612
root 5.65372 16.6946 -3.74843 0.796376 51.5572 -7.54112
lfemur -17.5439 23.5303 -21.8487
ltibia 39.8629 -0 0
lfoot -32.4617 24.1318 0.00395055
ltoes 18.0347 -0 0
rfemur -51.7317 -17.7362 26.7062
rtibia 61.1378 -0 0
rfoot 7.83055 26.9207 -0.00860326
rtoes -6.58777 0 0
lowerback 3.16668 -3.23636 -4.73283
upperback -0.0411798 -4.46369 1.33553
thorax -1.34776 -2.19542 4.19668
lowerneck -8.46408 -9.34293 -0.49756
upperneck 14.7799 -13.3134 4.534
head 6.23468 -6.12628 0.441523
lclavicle 6.20208e-14 0 0
lhumerus -22.2361 -42.5912 93.658
lradius 57.5915 -0 0
lwrist 21.0379 0 0
lhand -11.1164 0.049842 0.00221595
lfingers 7.12502 -0 0
lthumb 14.9084 29.4931 0.00207803
rclavicle 6.20208e-14 0 0
rhumerus 20.2323 3.83603 -71.17
rradius 117.147 -0 0
rwrist -57.7505 0 0
rhand -27.4517 -23.0771 0.0326899
rfingers 7.12502 -0 0
rthumb -0.856252 -53.05 0.031369
613
root 5.66442 16.7112 -3.74984 1.31307 50.1088 -7.2196
lfemur -17.3118 23.2559 -21.9269
ltibia 39.4377 -0 0
lfoot -32.6063 24.0516 0.00486224
ltoes 18.8874 -0 0
rfemur -51.4611 -17.7705 26.187
rtibia 61.6429 -0 0
rfoot 7.85492 25.8846 -0.0105912
rtoes -7.30539 0 0
lowerback 2.97658 -3.26532 -4.58055
upperback -0.161133 -4.48879 1.41865
thorax -1.36743 -2.20618 4.18987
lowerneck -8.60021 -9.19751 -0.381862
upperneck 14.7942 -13.1069 4.35447
head 6.23872 -6.03237 0.380868
lclavicle 6.20208e-14 0 0
lhumerus -22.2506 -43.2411 94.253
lradius 58.1911 -0 0
lwrist 21.0085 0 0
lhand -11.1661 -0.0812441 0.00272734
lfingers 7.12502 -0 0
lthumb 14.8605 29.3655 0.00255759
rclavicle 6.20208e-14 0 0
rhumerus 19.3099 3.65678 -70.7142
rradius 115.967 -0 0
rwrist -57.5108 0 0
rhand -27.7056 -23.4552 0.0402356
rfingers 7.12502 -0 0
rthumb -1.1015 -53.4258 0.0386097
614
root 5.67512 16.7278 -3.75125 1.80243 48.6587 -6.92722
lfemur -17.0797 22.9818 -22.0061
ltibia 39.0124 -0 0
lfoot -32.751 23.9713 0.00557134
ltoes 19.7401 -0 0
rfemur -51.19 -17.8026 25.6675
rtibia 62.148 -0 0
rfoot 7.87933 24.8486 -0.0121381
rtoes -8.02302 0 0
lowerback 2.7864 -3.29377 -4.42817
upperback -0.281126 -4.51372 1.50184
thorax -1.38711 -2.21693 4.18307
lowerneck -8.73599 -9.05182 -0.266561
upperneck 14.8078 -12.9004 4.17514
head 6.24266 -5.93845 0.320229
lclavicle 6.20208e-14 0 0
lhumerus -22.2745 -43.8909 94.8546
lradius 58.7908 -0 0
lwrist 20.9792 0 0
lhand -11.2157 -0.212331 0.00312508
lfingers 7.12502 -0 0
lthumb 14.8127 29.2379 0.00293058
rclavicle 6.20208e-14 0 0
rhumerus 18.3864 3.48489 -70.2556
rradius 114.787 -0 0
rwrist -57.271 0 0
rhand -27.9596 -23.8334 0.046105
rfingers 7.12502 -0 0
rthumb -1.3468 -53.8016 0.0442419
615
root 5.68582 16.7444 -3.75266 2.26735 47.2071 -6.66117
lfemur -16.8477 22.708 -22.0864
ltibia 38.5872 -0 0
lfoot -32.8957 23.8911 0.00607785
ltoes 20.5928 -0 0
rfemur -50.9187 -17.8323 25.1478
rtibia 62.6531 -0 0
rfoot 7.90377 23.8125 -0.0132434
rtoes -8.74064 0 0
lowerback 2.59613 -3.32172 -4.27568
upperback -0.40116 -4.53847 1.58507
thorax -1.40679 -2.22769 4.17627
lowerneck -8.87142 -8.90587 -0.151656
upperneck 14.8208 -12.6939 3.99601
head 6.2465 -5.84453 0.259608
lclavicle 6.20208e-14 0 0
lhumerus -22.3083 -44.5404 95.4634
lradius 59.3904 -0 0
lwrist 20.9498 0 0
lhand -11.2654 -0.343417 0.00340919
lfingers 7.12502 -0 0
lthumb 14.7648 29.1103 0.00319701
rclavicle 6.20208e-14 0 0
rhumerus 17.4616 3.32039 -69.7945
rradius 113.608 -0 0
rwrist -57.0313 0 0
rhand -28.2136 -24.2117 0.0502977
rfingers 7.12502 -0 0
rthumb -1.59212 -54.1774 0.0482651
616
root 5.69652 16.761 -3.75407 2.71036 45.7541 -6.41901
lfemur -16.6157 22.4345 -22.1677
ltibia 38.1619 -0 0
lfoot -33.0403 23.8108 0.00638176
ltoes 21.4455 -0 0
rfemur -50.647 -17.8597 24.6279
rtibia 63.1582 -0 0
rfoot 7.92821 22.7764 -0.0139067
rtoes -9.45827 0 0
lowerback 2.40579 -3.34916 -4.1231
upperback -0.521233 -4.56305 1.66837
thorax -1.42646 -2.23845 4.16947
lowerneck -9.0065 -8.75964 -0.0371465
upperneck 14.8331 -12.4873 3.81707
head 6.25024 -5.7506 0.199002
lclavicle 6.20208e-14 0 0
lhumerus -22.3523 -45.1897 96.0795
lradius 59.9901 -0 0
lwrist 20.9204 0 0
lhand -11.3151 -0.474504 0.00357966
lfingers 7.12502 -0 0
lthumb 14.717 28.9827 0.00335686
rclavicle 6.20208e-14 0 0
rhumerus 16.5357 3.16336 -69.3307
rradius 112.429 -0 0
rwrist -56.7915 0 0
rhand -28.4676 -24.5899 0.0528134
rfingers 7.12502 -0 0
rthumb -1.83747 -54.5532 0.0506792
617
root 5.70722 16.7776 -3.75548 3.13368 44.2999 -6.19863
lfemur -16.3838 22.1613 -22.2501
ltibia 37.7367 -0 0
lfoot -33.185 23.7306 0.00648306
ltoes 22.2982 -0 0
rfemur -50.375 -17.8847 24.1078
rtibia 63.6633 -0 0
rfoot 7.95267 21.7404 -0.0141278
rtoes -10.1759 0 0
lowerback 2.21538 -3.3761 -3.97043
upperback -0.641347 -4.58746 1.75171
thorax -1.44613 -2.24921 4.16268
lowerneck -9.14123 -8.61315 0.0769696
upperneck 14.8447 -12.2807 3.63832
head 6.25388 -5.65667 0.138413
lclavicle 6.20208e-14 0 0
lhumerus -22.4068 -45.8386 96.7035
lradius 60.5897 -0 0
lwrist 20.891 0 0
lhand -11.3647 -0.605592 0.00363648
lfingers 7.12502 -0 0
lthumb 14.6691 28.8551 0.00341015
rclavicle 6.20208e-14 0 0
rhumerus 15.6087 3.01383 -68.8646
rradius 111.249 -0 0
rwrist -56.5518 0 0
rhand -28.7217 -24.9682 0.053652
rfingers 7.12502 -0 0
rthumb -2.08283 -54.929 0.0514839
618
root 5.71792 16.7941 -3.75688 3.53926 42.8446 -5.99816
lfemur -16.1519 21.8884 -22.3335
ltibia 37.3114 -0 0
lfoot -33.3297 23.6504 0.00638176
ltoes 23.1509 -0 0
rfemur -50.1027 -17.9074 23.5875
rtibia 64.1685 -0 0
rfoot 7.97713 20.7043 -0.0139067
rtoes -10.8935 0 0
lowerback 2.02488 -3.40253 -3.81767
upperback -0.7615 -4.61169 1.83511
thorax -1.4658 -2.25997 4.15589
lowerneck -9.27561 -8.4664 0.190693
upperneck 14.8556 -12.074 3.45975
head 6.25741 -5.56274 0.0778395
lclavicle 6.20208e-14 0 0
lhumerus -22.4722 -46.487 97.3358
lradius 61.1893 -0 0
lwrist 20.8616 0 0
lhand -11.4144 -0.736679 0.00357966
lfingers 7.12502 -0 0
lthumb 14.6212 28.7275 0.00335686
rclavicle 6.20208e-14 0 0
rhumerus 14.6807 2.87185 -68.3962
rradius 110.07 -0 0
rwrist -56.312 0 0
rhand -28.9758 -25.3464 0.0528134
rfingers 7.12502 -0 0
rthumb -2.32819 -55.3048 0.0506792
619
root 5.72862 16.8107 -3.75829 3.92884 41.3884 -5.81598
lfemur -15.9199 21.6159 -22.4179
ltibia 36.8861 -0 0
lfoot -33.4743 23.5701 0.00607785
ltoes 24.0036 -0 0
rfemur -49.8303 -17.9277 23.067
rtibia 64.6736 -0 0
rfoot 8.00157 19.6682 -0.0132434
rtoes -11.6111 0 0
lowerback 1.83431 -3.42845 -3.66481
upperback -0.881692 -4.63575 1.91857
thorax -1.48547 -2.27074 4.1491
lowerneck -9.40965 -8.31938 0.304026
upperneck 14.8659 -11.8674 3.28136
head 6.26085 -5.4688 0.0172814
lclavicle 6.20208e-14 0 0
lhumerus -22.549 -47.1349 97.9769
lradius 61.789 -0 0
lwrist 20.8322 0 0
lhand -11.4641 -0.867766 0.00340919
lfingers 7.12502 -0 0
lthumb 14.5734 28.5999 0.00319701
rclavicle 6.20208e-14 0 0
rhumerus 13.7516 2.73748 -67.9256
rradius 108.89 -0 0
rwrist -56.0723 0 0
rhand -29.2298 -25.7246 0.0502977
rfingers 7.12502 -0 0
rthumb -2.57353 -55.6806 0.0482651
